<svg width="148" height="35" viewBox="0 0 148 35" fill="none" xmlns="http://www.w3.org/2000/svg">
<g clip-path="url(#clip0_387_3351)">
<path d="M70.0227 7.20838V28.5879H65.9735V17.4446L66.2003 11.1927H66.1355L60.2075 28.5879H56.5471L50.6515 11.1927H50.5867L50.8135 17.4446V28.5879H46.7643V7.20838H53.243L57.0978 18.8699L58.4583 23.6965H58.5231L59.916 18.9023L63.7384 7.20838H70.0227ZM82.4864 28.9118C80.7804 28.9118 79.2903 28.5771 78.0162 27.9076C76.7636 27.2382 75.7918 26.2772 75.1008 25.0246C74.4097 23.7721 74.0642 22.2604 74.0642 20.4896C74.0642 18.7188 74.4097 17.2071 75.1008 15.9545C75.7918 14.702 76.7528 13.741 77.9838 13.0715C79.2363 12.4021 80.6616 12.0674 82.2597 12.0674C83.9009 12.0674 85.2939 12.4021 86.4384 13.0715C87.583 13.7194 88.4576 14.6156 89.0623 15.7602C89.6669 16.8831 89.9693 18.1681 89.9693 19.615C89.9693 20.0469 89.9585 20.4572 89.9369 20.8459C89.9153 21.2346 89.8829 21.5802 89.8397 21.8825H76.9148V18.8051H87.8961L85.7582 19.5826C85.7582 18.2221 85.445 17.1747 84.8188 16.4404C84.2141 15.7062 83.3503 15.3391 82.2273 15.3391C81.4067 15.3391 80.694 15.5334 80.0893 15.9221C79.5063 16.3109 79.0636 16.8939 78.7612 17.6714C78.4589 18.4272 78.3077 19.3882 78.3077 20.5544C78.3077 21.6989 78.4697 22.6491 78.7936 23.405C79.1391 24.1392 79.6142 24.6899 80.2189 25.057C80.8452 25.4242 81.5902 25.6077 82.454 25.6077C83.4042 25.6077 84.1709 25.4242 84.754 25.057C85.337 24.6899 85.7905 24.1824 86.1145 23.5346L89.6453 24.8951C89.2998 25.7373 88.7707 26.4607 88.0581 27.0654C87.367 27.6701 86.5356 28.1344 85.5638 28.4583C84.6136 28.7607 83.5878 28.9118 82.4864 28.9118ZM99.1791 7.43513V23.3078C99.1791 24.0852 99.3734 24.6575 99.7621 25.0246C100.172 25.3702 100.723 25.5429 101.414 25.5429C101.954 25.5429 102.429 25.4673 102.839 25.3162C103.25 25.1434 103.617 24.9167 103.941 24.6359L104.654 27.5837C104.135 27.994 103.487 28.3179 102.71 28.5555C101.932 28.793 101.112 28.9118 100.248 28.9118C99.1683 28.9118 98.2073 28.7499 97.365 28.4259C96.5444 28.102 95.8966 27.5837 95.4215 26.8711C94.968 26.1584 94.7412 25.2082 94.7412 24.0204V8.66607L99.1791 7.43513ZM104.362 12.3913V15.6954H91.761V12.3913H104.362ZM107.364 28.5879V12.3913H111.219L111.511 15.5658C111.943 14.4429 112.569 13.579 113.39 12.9744C114.232 12.3697 115.279 12.0674 116.532 12.0674C116.899 12.0674 117.234 12.0997 117.536 12.1645C117.838 12.2293 118.087 12.3157 118.281 12.4237L117.763 16.1489C117.547 16.0625 117.277 15.9977 116.953 15.9545C116.65 15.9113 116.251 15.8898 115.754 15.8898C115.106 15.8898 114.48 16.0517 113.875 16.3757C113.271 16.678 112.774 17.1531 112.385 17.801C111.997 18.4272 111.802 19.2263 111.802 20.1981V28.5879H107.364ZM123.265 10.059C122.337 10.059 121.646 9.86462 121.192 9.4759C120.739 9.06559 120.512 8.47171 120.512 7.69427C120.512 6.89524 120.739 6.30137 121.192 5.91265C121.646 5.50233 122.337 5.29718 123.265 5.29718C124.194 5.29718 124.885 5.50233 125.339 5.91265C125.792 6.30137 126.019 6.89524 126.019 7.69427C126.019 8.47171 125.792 9.06559 125.339 9.4759C124.885 9.86462 124.194 10.059 123.265 10.059ZM125.468 12.3913V28.5879H121.03V12.3913H125.468ZM133.768 12.3913L138.044 19.4854L139.243 19.453L145.721 28.5879H140.571L136.133 21.3318L134.837 21.2022L128.585 12.3913H133.768ZM145.624 12.3913L139.372 21.1051L138.044 21.0079L133.315 28.5879H128.294L134.999 19.3882L136.262 19.5502L140.603 12.3913H145.624Z" fill="black"/>
<path d="M33.2173 21.9435C33.2702 21.9844 33.3215 22.0271 33.3762 22.0646C32.3735 25.7187 30.1769 28.9333 27.1355 31.1977C24.0941 33.4621 20.3822 34.6464 16.5897 34.5624C12.7971 34.4785 9.14144 33.1311 6.20344 30.7343C3.26543 28.3376 1.21363 25.0289 0.374023 21.3341C1.73437 19.9328 2.56323 18.1286 3.75952 16.6043C4.08651 16.1271 4.51554 15.7283 5.01562 15.4368C6.02734 14.8326 7.38427 15.0801 8.21142 15.8892C8.95483 16.6009 9.4829 17.497 10.0315 18.3607C10.886 19.7262 11.7934 21.1242 13.0803 22.1295C15.0867 23.7067 18.1731 23.623 20.1025 21.9588C21.7312 20.6206 22.6318 18.6714 23.8008 16.9696C24.1428 16.4364 24.5741 15.9659 25.0757 15.5785C25.5257 15.2289 26.0795 15.0391 26.6496 15.0391C27.2198 15.0391 27.7736 15.2289 28.2236 15.5785C28.8764 16.0257 29.302 16.7085 29.7412 17.3468C30.7922 18.9547 31.6946 20.7265 33.2173 21.9435Z" fill="#64E7A5"/>
<path d="M33.978 0.587891V17.5782C33.978 17.7318 33.978 17.8871 33.978 18.039C33.8857 17.9076 33.7986 17.7762 33.7131 17.6499C32.5886 15.943 31.5974 14.0347 29.8833 12.8279C27.9265 11.4522 25.0793 11.5239 23.2012 13.0089C22.0049 13.9476 21.1504 15.2415 20.3437 16.5148C19.6601 17.5696 19.0432 18.715 18.052 19.5189C17.5783 19.8829 16.9922 20.0703 16.3949 20.0484C15.7976 20.0266 15.2268 19.7971 14.781 19.3994C13.5317 18.2814 12.8909 16.6821 11.9031 15.3558C11.1272 14.2105 10.1684 13.1369 8.91747 12.4968C7.60084 11.8512 6.09112 11.7168 4.6809 12.1196C2.94287 12.6129 1.62182 13.9647 0.642578 15.4207C0.416992 15.7211 0.206787 16.0334 0 16.3492C0.310935 12.0671 2.23351 8.06128 5.38116 5.13727C8.5288 2.21326 12.6681 0.587859 16.9668 0.587891H33.978Z" fill="#0065FF"/>
</g>
<defs>
<clipPath id="clip0_387_3351">
<rect width="148" height="34" fill="white" transform="translate(0 0.587891)"/>
</clipPath>
</defs>
</svg>
