<svg width="34" height="35" viewBox="0 0 34 35" fill="none" xmlns="http://www.w3.org/2000/svg">
<path d="M33.2173 21.9435C33.2702 21.9844 33.3215 22.0271 33.3762 22.0646C32.3735 25.7187 30.1769 28.9333 27.1355 31.1977C24.0941 33.4621 20.3822 34.6464 16.5897 34.5624C12.7971 34.4785 9.14144 33.1311 6.20344 30.7343C3.26543 28.3376 1.21363 25.0289 0.374023 21.3341C1.73437 19.9328 2.56323 18.1286 3.75952 16.6043C4.08651 16.1271 4.51554 15.7283 5.01562 15.4368C6.02734 14.8326 7.38427 15.0801 8.21142 15.8892C8.95483 16.6009 9.4829 17.497 10.0315 18.3607C10.886 19.7262 11.7934 21.1242 13.0803 22.1295C15.0867 23.7067 18.1731 23.623 20.1025 21.9588C21.7312 20.6206 22.6318 18.6714 23.8008 16.9696C24.1428 16.4364 24.5741 15.9659 25.0757 15.5785C25.5257 15.2289 26.0795 15.0391 26.6496 15.0391C27.2198 15.0391 27.7736 15.2289 28.2236 15.5785C28.8764 16.0257 29.302 16.7085 29.7412 17.3468C30.7922 18.9547 31.6946 20.7265 33.2173 21.9435Z" fill="#64E7A5"/>
<path d="M33.978 0.587891V17.5782C33.978 17.7318 33.978 17.8871 33.978 18.039C33.8857 17.9076 33.7986 17.7762 33.7131 17.6499C32.5886 15.943 31.5974 14.0347 29.8833 12.8279C27.9265 11.4522 25.0793 11.5239 23.2012 13.0089C22.0049 13.9476 21.1504 15.2415 20.3437 16.5148C19.6601 17.5696 19.0432 18.715 18.052 19.5189C17.5783 19.8829 16.9922 20.0703 16.3949 20.0484C15.7976 20.0266 15.2268 19.7971 14.781 19.3994C13.5317 18.2814 12.8909 16.6821 11.9031 15.3558C11.1272 14.2105 10.1684 13.1369 8.91747 12.4968C7.60084 11.8512 6.09112 11.7168 4.6809 12.1196C2.94287 12.6129 1.62182 13.9647 0.642578 15.4207C0.416992 15.7211 0.206787 16.0334 0 16.3492C0.310935 12.0671 2.23351 8.06128 5.38116 5.13727C8.5288 2.21326 12.6681 0.587859 16.9668 0.587891H33.978Z" fill="#0065FF"/>
</svg>
